# xmcd
#
# Track frame offsets:
#	150
#	1770
#	13745
#	43605
#	62795
#	83474
#	105271
#	127303
#	139741
#	154551
#	173045
#	188480
#	198662
#	232630
#	248696
#
# Disc length: 3631 seconds
#
# Revision: 0
# Processed by: cddbd v1.5.1PL0 Copyright (c) Steve Scherf et al.
# Submitted via: audiograbber 1.83.01
#
DISCID=ad0e2d0f
DTITLE=Various Artist - Blues From the "Ain't Nothin' But... Ltd."
DYEAR=2000
DGENRE=Blues
TTITLE0=BIG LUCKY CARTER - (Radio Advert)
TTITLE1=KING DAVID'S BLUES TRIO - Tell Me Baby
TTITLE2=COLIN JOHN BAND - Take Me To The River
TTITLE3=THE ROBERT HOKUM BLUES BAND - Baby Please Don't Go
TTITLE4=VOODOO VENDORS - Feel So Good
TTITLE5=DUKE - Same Mistake
TTITLE6=DINO BAPTISTE - Boogie Woogie Piano
TTITLE7=IAN SIEGAL - Stop Breaking Down
TTITLE8=QUEEN BEE - Big Kiss
TTITLE9=MARCUS MALONE - Dirty Shame
TTITLE10=THE FREEZE - Kiss The Bad Things Goodbye
TTITLE11=THE HOUSEROCKERS BLUES COMBO - A Fool No More
TTITLE12=THE IAN SIEGAL BAND - Mudslide
TTITLE13=THE BLUES ENGINEERS - Earning Your Living
TTITLE14=THE BIG BLUE - You Talk Too Much
EXTD=Sampler des Blues Clubs "Ain't Nothin' But... Ltd.", London
EXTT0=
EXTT1=
EXTT2=
EXTT3=
EXTT4=
EXTT5=
EXTT6=
EXTT7=
EXTT8=
EXTT9=
EXTT10=
EXTT11=
EXTT12=
EXTT13=
EXTT14=
PLAYORDER=
